<?xml version="1.0" standalone="no"?>
<!DOCTYPE svg PUBLIC "-//W3C//DTD SVG 20010904//EN"
 "http://www.w3.org/TR/2001/REC-SVG-20010904/DTD/svg10.dtd">
<svg version="1.0" xmlns="http://www.w3.org/2000/svg"
 width="2388.000000pt" height="1672.000000pt" viewBox="0 0 2388.000000 1672.000000"
 preserveAspectRatio="xMidYMid meet">

<g transform="translate(0.000000,1672.000000) scale(0.100000,-0.100000)"
fill="#000000" stroke="none">
<path d="M256 11227 c3 -10 9 -15 12 -12 3 3 0 11 -7 18 -10 9 -11 8 -5 -6z"/>
<path d="M4485 7140 c3 -5 8 -10 11 -10 2 0 4 5 4 10 0 6 -5 10 -11 10 -5 0
-7 -4 -4 -10z"/>
<path d="M23706 6695 c-9 -26 -7 -32 5 -12 6 10 9 21 6 23 -2 3 -7 -2 -11 -11z"/>
<path d="M23617 6663 c-4 -3 -7 -11 -7 -17 0 -6 5 -5 12 2 6 6 9 14 7 17 -3 3
-9 2 -12 -2z"/>
<path d="M23675 6660 c3 -5 8 -10 11 -10 2 0 4 5 4 10 0 6 -5 10 -11 10 -5 0
-7 -4 -4 -10z"/>
<path d="M23630 6629 c0 -5 -5 -7 -12 -3 -7 4 -8 3 -4 -4 4 -6 13 -9 21 -6 8
4 12 10 9 15 -7 12 -14 11 -14 -2z"/>
<path d="M23490 6580 c0 -5 5 -10 10 -10 6 0 10 5 10 10 0 6 -4 10 -10 10 -5
0 -10 -4 -10 -10z"/>
<path d="M23514 6521 c5 -8 3 -17 -5 -22 -8 -5 -9 -9 -4 -9 6 0 16 4 23 9 10
6 9 11 -4 22 -14 11 -16 11 -10 0z"/>
<path d="M23370 6500 c0 -5 5 -10 10 -10 6 0 10 5 10 10 0 6 -4 10 -10 10 -5
0 -10 -4 -10 -10z"/>
<path d="M23416 6453 c-6 -14 -5 -15 5 -6 7 7 10 15 7 18 -3 3 -9 -2 -12 -12z"/>
<path d="M22041 4974 c0 -11 3 -14 6 -6 3 7 2 16 -1 19 -3 4 -6 -2 -5 -13z"/>
<path d="M21922 4887 c-7 -8 -7 -18 -2 -27 6 -8 10 -13 11 -10 0 3 2 15 5 28
4 25 1 28 -14 9z"/>
<path d="M21886 4851 c-3 -5 1 -12 10 -15 22 -8 25 -4 9 11 -8 7 -16 9 -19 4z"/>
<path d="M18932 3969 c-53 -87 -156 -248 -184 -286 -13 -17 -48 -69 -78 -114
-30 -45 -74 -106 -97 -135 -24 -30 -43 -57 -43 -61 0 -3 -26 -38 -58 -77 -32
-39 -61 -79 -65 -88 -3 -10 -11 -18 -16 -18 -5 0 -12 -13 -16 -30 -4 -16 -12
-30 -19 -30 -13 0 -46 -33 -61 -60 -5 -9 1 -7 15 5 20 17 23 18 17 3 -5 -14
-1 -18 16 -18 12 0 31 6 42 14 11 7 60 16 109 20 57 4 96 12 106 21 9 8 32 15
52 15 19 0 46 8 59 19 14 11 50 21 87 26 34 4 65 13 70 19 6 11 75 27 122 28
8 1 20 5 27 10 6 5 25 10 42 10 17 1 31 5 31 10 0 5 9 6 20 3 12 -4 20 -2 20
5 0 6 4 9 9 6 5 -3 11 1 15 9 3 8 14 15 25 15 14 0 19 5 15 15 -4 9 0 15 10
15 9 0 25 8 35 18 39 34 50 42 66 42 8 0 15 4 15 9 0 11 71 57 82 54 4 -2 5 4
2 12 -4 10 0 15 14 15 11 0 29 11 40 25 11 14 24 25 29 25 6 0 18 9 28 20 10
11 15 20 11 20 -5 0 10 15 31 33 22 18 57 51 78 74 21 23 42 40 47 37 4 -3 8
-1 8 3 0 5 25 36 55 68 30 33 57 68 60 78 4 9 12 17 20 17 14 0 28 41 17 51
-4 4 -74 14 -157 23 -82 9 -166 21 -185 26 -19 5 -87 14 -150 20 -63 6 -146
15 -185 20 -38 5 -98 11 -133 15 l-62 6 -38 -62z"/>
<path d="M21041 3384 c0 -11 3 -14 6 -6 3 7 2 16 -1 19 -3 4 -6 -2 -5 -13z"/>
<path d="M20916 3345 c-3 -9 0 -15 9 -15 16 0 20 16 6 24 -5 3 -11 -1 -15 -9z"/>
<path d="M20870 3334 c0 -8 5 -12 10 -9 6 3 10 10 10 16 0 5 -4 9 -10 9 -5 0
-10 -7 -10 -16z"/>
<path d="M20557 3333 c-4 -3 -7 -11 -7 -17 0 -6 5 -5 12 2 6 6 9 14 7 17 -3 3
-9 2 -12 -2z"/>
<path d="M20635 3330 c3 -5 13 -10 21 -10 8 0 12 5 9 10 -3 6 -13 10 -21 10
-8 0 -12 -4 -9 -10z"/>
<path d="M20750 3326 c0 -9 5 -16 10 -16 6 0 10 4 10 9 0 6 -4 13 -10 16 -5 3
-10 -1 -10 -9z"/>
<path d="M20711 3303 c0 -25 1 -26 9 -8 12 27 12 35 0 35 -5 0 -10 -12 -9 -27z"/>
<path d="M20433 3303 c-7 -2 -13 -11 -13 -19 0 -19 -19 -18 -26 1 -5 13 -11
11 -30 -10 -14 -15 -29 -22 -38 -19 -11 4 -16 1 -16 -10 0 -9 6 -17 13 -17 6
-1 17 -2 22 -4 6 -1 15 -3 20 -4 6 -1 3 -6 -5 -11 -12 -8 -11 -10 8 -10 12 0
22 5 22 11 0 6 9 9 19 6 10 -2 25 -1 32 4 12 7 11 9 -1 9 -11 0 -10 4 4 12 15
8 21 8 24 0 4 -13 50 -6 67 9 5 5 22 9 37 9 41 0 34 16 -9 24 -57 9 -63 8 -57
-11 5 -17 5 -17 -6 0 -6 9 -18 17 -25 17 -8 0 -15 5 -15 10 0 11 -7 12 -27 3z
m-33 -63 c0 -5 -4 -10 -10 -10 -5 0 -10 5 -10 10 0 6 5 10 10 10 6 0 10 -4 10
-10z"/>
<path d="M20626 3297 c-16 -11 -16 -15 -4 -19 8 -4 20 2 26 13 14 22 4 25 -22
6z"/>
<path d="M20680 3300 c0 -5 5 -10 11 -10 5 0 7 5 4 10 -3 6 -8 10 -11 10 -2 0
-4 -4 -4 -10z"/>
<path d="M20130 3261 c0 -12 -39 -21 -46 -10 -3 5 -11 9 -17 9 -8 0 -8 -3 2
-9 9 -6 10 -11 2 -15 -6 -4 -18 0 -26 8 -12 12 -22 13 -46 4 -16 -6 -43 -8
-59 -4 -16 3 -32 1 -35 -4 -3 -5 -13 -6 -21 -3 -14 5 -14 3 -2 -16 8 -14 19
-20 31 -16 9 3 26 8 37 11 15 5 19 3 14 -9 -4 -11 1 -15 20 -13 14 0 26 3 26
6 0 7 67 6 75 -1 3 -4 25 -3 48 2 32 6 46 4 60 -8 9 -9 20 -13 24 -10 3 4 3 7
-1 7 -4 0 2 10 14 22 11 12 19 27 17 33 -5 12 -51 9 -55 -4 -5 -14 -42 0 -42
15 0 8 -4 14 -10 14 -5 0 -10 -4 -10 -9z"/>
<path d="M20257 3245 c3 -14 10 -25 15 -25 13 0 6 43 -8 47 -7 2 -10 -6 -7
-22z"/>
<path d="M19820 3221 c0 -9 41 -23 48 -16 2 2 1 8 -3 14 -8 13 -45 15 -45 2z"/>
<path d="M19770 3210 c-12 -8 -10 -10 8 -10 13 0 20 4 17 10 -7 12 -6 12 -25
0z"/>
</g>
</svg>
